<svg xmlns="http://www.w3.org/2000/svg" width="1000" height="620" viewBox="0 0 1000 620">
<defs>
<marker id="arrow" markerWidth="10" markerHeight="10" refX="9" refY="3" orient="auto" markerUnits="strokeWidth">
<path d="M0,0 L0,6 L9,3 z" fill="#5f6368"/>
</marker>
</defs>
<rect width="100%" height="100%" fill="#ffffff"/>
<text x="30.0" y="38.0" text-anchor="start" dominant-baseline="middle" font-family="Arial, sans-serif" font-size="26" font-weight="bold" fill="#202124">Layered architecture fixture</text>
<text x="30.0" y="68.0" text-anchor="start" dominant-baseline="middle" font-family="Arial, sans-serif" font-size="12" font-weight="normal" fill="#202124">Domain-neutral grouped architecture conformance fixture.</text>
<rect x="80" y="90" width="840" height="140" rx="10" ry="10" fill="#eef4ff" stroke="#6c8ebf" stroke-width="2"/>
<text x="96.0" y="112.0" text-anchor="start" dominant-baseline="middle" font-family="Arial, sans-serif" font-size="17" font-weight="bold" fill="#202124">Interface layer</text>
<rect x="80" y="270" width="840" height="150" rx="10" ry="10" fill="#eef8ee" stroke="#82b366" stroke-width="2"/>
<text x="96.0" y="292.0" text-anchor="start" dominant-baseline="middle" font-family="Arial, sans-serif" font-size="17" font-weight="bold" fill="#202124">Service layer</text>
<rect x="80" y="460" width="840" height="110" rx="10" ry="10" fill="#f5f5f5" stroke="#777777" stroke-width="2"/>
<text x="96.0" y="482.0" text-anchor="start" dominant-baseline="middle" font-family="Arial, sans-serif" font-size="17" font-weight="bold" fill="#202124">External resources</text>
<polyline points="260.0,200.0 260.0,262.5 280.0,262.5 280.0,325.0" fill="none" stroke="#5f6368" stroke-width="2" marker-end="url(#arrow)"/>
<polyline points="610.0,170.0 510.0,170.0 510.0,357.5 410.0,357.5" fill="none" stroke="#5f6368" stroke-width="2" marker-end="url(#arrow)"/>
<polyline points="410.0,357.5 590.0,357.5" fill="none" stroke="#5f6368" stroke-width="2" marker-end="url(#arrow)"/>
<rect x="460.0" y="344.5" width="80" height="22" fill="#ffffff" opacity="0.94"/>
<text x="500.0" y="356.5" text-anchor="middle" dominant-baseline="middle" font-family="Arial, sans-serif" font-size="12" font-weight="normal" fill="#202124">invoke</text>
<polyline points="280.0,390.0 280.0,495.0" fill="none" stroke="#5f6368" stroke-width="2" marker-end="url(#arrow)"/>
<rect x="240.0" y="429.5" width="80" height="22" fill="#ffffff" opacity="0.94"/>
<text x="280.0" y="441.5" text-anchor="middle" dominant-baseline="middle" font-family="Arial, sans-serif" font-size="12" font-weight="normal" fill="#202124">persist</text>
<polyline points="710.0,390.0 710.0,495.0" fill="none" stroke="#5f6368" stroke-width="2" stroke-dasharray="7 5" marker-end="url(#arrow)"/>
<rect x="670.0" y="429.5" width="80" height="22" fill="#ffffff" opacity="0.94"/>
<text x="710.0" y="441.5" text-anchor="middle" dominant-baseline="middle" font-family="Arial, sans-serif" font-size="12" font-weight="normal" fill="#202124">port</text>
<rect x="150" y="140" width="220" height="60" rx="8" ry="8" fill="#dae8fc" stroke="#6c8ebf" stroke-width="2"/>
<text x="260.0" y="170.0" text-anchor="middle" dominant-baseline="middle" font-family="Arial, sans-serif" font-size="14" font-weight="normal" fill="#202124">Public API</text>
<rect x="610" y="140" width="220" height="60" rx="8" ry="8" fill="#dae8fc" stroke="#6c8ebf" stroke-width="2"/>
<text x="720.0" y="170.0" text-anchor="middle" dominant-baseline="middle" font-family="Arial, sans-serif" font-size="14" font-weight="normal" fill="#202124">Operator console</text>
<rect x="150" y="325" width="260" height="65" rx="8" ry="8" fill="#d5e8d4" stroke="#82b366" stroke-width="2"/>
<text x="280.0" y="357.5" text-anchor="middle" dominant-baseline="middle" font-family="Arial, sans-serif" font-size="14" font-weight="normal" fill="#202124">Application coordinator</text>
<rect x="590" y="325" width="240" height="65" rx="8" ry="8" fill="#fff2cc" stroke="#d6b656" stroke-width="2"/>
<text x="710.0" y="357.5" text-anchor="middle" dominant-baseline="middle" font-family="Arial, sans-serif" font-size="14" font-weight="normal" fill="#202124">Domain service</text>
<rect x="150" y="495" width="260" height="55" rx="8" ry="8" fill="#f4cccc" stroke="#b85450" stroke-width="2"/>
<text x="280.0" y="522.5" text-anchor="middle" dominant-baseline="middle" font-family="Arial, sans-serif" font-size="14" font-weight="normal" fill="#202124">Storage adapter</text>
<rect x="590" y="495" width="240" height="55" rx="8" ry="8" fill="#eeeeee" stroke="#777777" stroke-width="2"/>
<text x="710.0" y="522.5" text-anchor="middle" dominant-baseline="middle" font-family="Arial, sans-serif" font-size="14" font-weight="normal" fill="#202124">External system</text>
</svg>
